<svg xmlns="http://www.w3.org/2000/svg" xmlns:xlink="http://www.w3.org/1999/xlink" width="500" zoomAndPan="magnify" viewBox="0 0 375 374.999991" height="500" preserveAspectRatio="xMidYMid meet" version="1.0"><defs><g/><clipPath id="11a357cd23"><path d="M 60.804688 60.804688 L 314.304688 60.804688 L 314.304688 314.304688 L 60.804688 314.304688 Z M 60.804688 60.804688 " clip-rule="nonzero"/></clipPath><clipPath id="360bace7cc"><path d="M 73.046875 208.671875 L 301.796875 208.671875 L 301.796875 303.113281 L 73.046875 303.113281 Z M 73.046875 208.671875 " clip-rule="nonzero"/></clipPath><clipPath id="567fbac68f"><path d="M 106.351562 107.664062 L 268.351562 107.664062 L 268.351562 269.664062 L 106.351562 269.664062 Z M 106.351562 107.664062 " clip-rule="nonzero"/></clipPath><clipPath id="91091fd193"><path d="M 150.257812 143.09375 L 170.507812 143.09375 L 170.507812 166.34375 L 150.257812 166.34375 Z M 150.257812 143.09375 " clip-rule="nonzero"/></clipPath><clipPath id="2e0e1a1480"><path d="M 84.480469 222 L 91 222 L 91 229 L 84.480469 229 Z M 84.480469 222 " clip-rule="nonzero"/></clipPath><clipPath id="630d8173ec"><path d="M 100.332031 222.671875 L 106.230469 222.671875 L 106.230469 228.597656 L 100.332031 228.597656 Z M 100.332031 222.671875 " clip-rule="nonzero"/></clipPath><clipPath id="5a67d02711"><path d="M 90.46875 225.707031 L 100.65625 225.707031 L 100.65625 234.136719 L 90.46875 234.136719 Z M 90.46875 225.707031 " clip-rule="nonzero"/></clipPath><clipPath id="93b6c2d17b"><path d="M 284.429688 222.671875 L 290.332031 222.671875 L 290.332031 228.597656 L 284.429688 228.597656 Z M 284.429688 222.671875 " clip-rule="nonzero"/></clipPath><clipPath id="b58bc60da7"><path d="M 274.566406 225.707031 L 284.753906 225.707031 L 284.753906 234.136719 L 274.566406 234.136719 Z M 274.566406 225.707031 " clip-rule="nonzero"/></clipPath></defs><g clip-path="url(#11a357cd23)"><path fill="#75929f" d="M 187.554688 314.304688 C 117.6875 314.304688 60.804688 257.425781 60.804688 187.554688 C 60.804688 117.6875 117.6875 60.804688 187.554688 60.804688 C 257.425781 60.804688 314.304688 117.6875 314.304688 187.554688 C 314.304688 257.425781 257.425781 314.304688 187.554688 314.304688 Z M 187.554688 62.679688 C 118.6875 62.679688 62.679688 118.6875 62.679688 187.554688 C 62.679688 256.425781 118.6875 312.433594 187.554688 312.433594 C 256.425781 312.433594 312.433594 256.425781 312.433594 187.554688 C 312.433594 118.6875 256.425781 62.679688 187.554688 62.679688 Z M 187.554688 62.679688 " fill-opacity="1" fill-rule="nonzero"/></g><g clip-path="url(#360bace7cc)"><path fill="#91acb8" d="M 301.796875 188.738281 C 301.796875 190.609375 301.753906 192.480469 301.660156 194.351562 C 301.566406 196.21875 301.429688 198.085938 301.246094 199.949219 C 301.0625 201.8125 300.835938 203.667969 300.558594 205.519531 C 300.285156 207.371094 299.964844 209.214844 299.601562 211.050781 C 299.234375 212.886719 298.824219 214.710938 298.371094 216.527344 C 297.914062 218.34375 297.417969 220.148438 296.871094 221.9375 C 296.328125 223.730469 295.742188 225.507812 295.113281 227.269531 C 294.480469 229.03125 293.808594 230.777344 293.089844 232.507812 C 292.375 234.238281 291.617188 235.945312 290.816406 237.640625 C 290.015625 239.332031 289.175781 241.003906 288.292969 242.652344 C 287.410156 244.304688 286.488281 245.933594 285.527344 247.539062 C 284.5625 249.144531 283.5625 250.722656 282.523438 252.28125 C 281.480469 253.835938 280.40625 255.367188 279.289062 256.871094 C 278.175781 258.375 277.023438 259.847656 275.835938 261.296875 C 274.648438 262.742188 273.425781 264.160156 272.167969 265.546875 C 270.914062 266.933594 269.621094 268.289062 268.296875 269.613281 C 266.976562 270.9375 265.621094 272.226562 264.234375 273.484375 C 262.84375 274.742188 261.429688 275.964844 259.980469 277.152344 C 258.535156 278.339844 257.058594 279.488281 255.554688 280.605469 C 254.050781 281.71875 252.523438 282.796875 250.964844 283.835938 C 249.410156 284.875 247.828125 285.878906 246.222656 286.839844 C 244.617188 287.800781 242.988281 288.726562 241.339844 289.605469 C 239.6875 290.488281 238.015625 291.332031 236.324219 292.132812 C 234.632812 292.929688 232.921875 293.691406 231.191406 294.40625 C 229.464844 295.121094 227.71875 295.796875 225.953125 296.425781 C 224.191406 297.058594 222.414062 297.644531 220.625 298.1875 C 218.832031 298.730469 217.03125 299.230469 215.214844 299.683594 C 213.398438 300.140625 211.570312 300.550781 209.738281 300.914062 C 207.902344 301.28125 206.058594 301.601562 204.207031 301.875 C 202.355469 302.148438 200.496094 302.378906 198.632812 302.5625 C 196.769531 302.746094 194.90625 302.882812 193.035156 302.976562 C 191.164062 303.066406 189.292969 303.113281 187.421875 303.113281 C 185.550781 303.113281 183.679688 303.066406 181.8125 302.976562 C 179.941406 302.882812 178.074219 302.746094 176.210938 302.5625 C 174.347656 302.378906 172.492188 302.148438 170.640625 301.875 C 168.789062 301.601562 166.945312 301.28125 165.109375 300.914062 C 163.273438 300.550781 161.449219 300.140625 159.632812 299.683594 C 157.816406 299.230469 156.011719 298.730469 154.222656 298.1875 C 152.429688 297.644531 150.652344 297.058594 148.890625 296.425781 C 147.128906 295.796875 145.382812 295.121094 143.652344 294.40625 C 141.925781 293.691406 140.214844 292.929688 138.519531 292.132812 C 136.828125 291.332031 135.15625 290.488281 133.507812 289.605469 C 131.855469 288.726562 130.226562 287.800781 128.621094 286.839844 C 127.015625 285.878906 125.4375 284.875 123.878906 283.835938 C 122.324219 282.796875 120.792969 281.71875 119.289062 280.605469 C 117.785156 279.488281 116.3125 278.339844 114.863281 277.152344 C 113.417969 275.964844 112 274.742188 110.613281 273.484375 C 109.226562 272.226562 107.871094 270.9375 106.546875 269.613281 C 105.222656 268.289062 103.933594 266.933594 102.675781 265.546875 C 101.417969 264.160156 100.199219 262.742188 99.011719 261.296875 C 97.824219 259.847656 96.671875 258.375 95.554688 256.871094 C 94.441406 255.367188 93.363281 253.835938 92.324219 252.28125 C 91.285156 250.722656 90.28125 249.144531 89.320312 247.539062 C 88.359375 245.933594 87.4375 244.304688 86.554688 242.652344 C 85.671875 241.003906 84.828125 239.332031 84.027344 237.640625 C 83.230469 235.945312 82.46875 234.234375 81.753906 232.507812 C 81.039062 230.777344 80.363281 229.03125 79.734375 227.269531 C 79.101562 225.507812 78.515625 223.730469 77.972656 221.9375 C 77.429688 220.148438 76.929688 218.34375 76.476562 216.527344 C 76.019531 214.710938 75.609375 212.886719 75.246094 211.050781 C 74.878906 209.214844 74.558594 207.371094 74.285156 205.519531 C 74.011719 203.667969 73.78125 201.8125 73.597656 199.949219 C 73.414062 198.085938 73.277344 196.21875 73.1875 194.351562 C 73.09375 192.480469 73.046875 190.609375 73.046875 188.738281 C 73.046875 186.867188 73.09375 184.996094 73.1875 183.125 C 73.277344 181.257812 73.414062 179.390625 73.597656 177.527344 C 73.78125 175.664062 74.011719 173.808594 74.285156 171.957031 C 74.558594 170.105469 74.878906 168.261719 75.246094 166.425781 C 75.609375 164.589844 76.019531 162.761719 76.476562 160.945312 C 76.929688 159.132812 77.429688 157.328125 77.972656 155.535156 C 78.515625 153.746094 79.101562 151.96875 79.734375 150.207031 C 80.363281 148.445312 81.039062 146.699219 81.753906 144.96875 C 82.46875 143.238281 83.230469 141.527344 84.027344 139.835938 C 84.828125 138.144531 85.671875 136.472656 86.554688 134.820312 C 87.4375 133.171875 88.359375 131.542969 89.320312 129.9375 C 90.28125 128.332031 91.285156 126.75 92.324219 125.195312 C 93.363281 123.636719 94.441406 122.109375 95.554688 120.605469 C 96.671875 119.101562 97.824219 117.625 99.011719 116.179688 C 100.199219 114.730469 101.417969 113.316406 102.675781 111.929688 C 103.933594 110.542969 105.222656 109.1875 106.546875 107.863281 C 107.871094 106.539062 109.226562 105.25 110.613281 103.992188 C 112 102.734375 113.417969 101.511719 114.863281 100.324219 C 116.3125 99.136719 117.785156 97.984375 119.289062 96.871094 C 120.792969 95.753906 122.324219 94.679688 123.878906 93.636719 C 125.4375 92.597656 127.015625 91.597656 128.621094 90.636719 C 130.226562 89.671875 131.855469 88.75 133.507812 87.867188 C 135.15625 86.984375 136.828125 86.144531 138.519531 85.34375 C 140.214844 84.542969 141.925781 83.785156 143.652344 83.070312 C 145.382812 82.351562 147.128906 81.679688 148.890625 81.046875 C 150.652344 80.417969 152.429688 79.832031 154.222656 79.289062 C 156.011719 78.746094 157.816406 78.246094 159.632812 77.789062 C 161.449219 77.335938 163.273438 76.925781 165.109375 76.558594 C 166.945312 76.195312 168.789062 75.875 170.640625 75.601562 C 172.492188 75.324219 174.347656 75.097656 176.210938 74.914062 C 178.074219 74.730469 179.941406 74.59375 181.8125 74.5 C 183.679688 74.410156 185.550781 74.363281 187.421875 74.363281 C 189.292969 74.363281 191.164062 74.410156 193.035156 74.5 C 194.90625 74.59375 196.769531 74.730469 198.632812 74.914062 C 200.496094 75.097656 202.355469 75.324219 204.207031 75.601562 C 206.058594 75.875 207.902344 76.195312 209.738281 76.558594 C 211.570312 76.925781 213.398438 77.335938 215.214844 77.789062 C 217.03125 78.246094 218.832031 78.746094 220.625 79.289062 C 222.414062 79.832031 224.191406 80.417969 225.953125 81.046875 C 227.71875 81.679688 229.464844 82.351562 231.191406 83.070312 C 232.921875 83.785156 234.632812 84.542969 236.324219 85.34375 C 238.015625 86.144531 239.6875 86.984375 241.339844 87.867188 C 242.988281 88.75 244.617188 89.671875 246.222656 90.636719 C 247.828125 91.597656 249.410156 92.597656 250.964844 93.636719 C 252.523438 94.679688 254.050781 95.753906 255.554688 96.871094 C 257.058594 97.984375 258.535156 99.136719 259.980469 100.324219 C 261.429688 101.511719 262.84375 102.734375 264.234375 103.992188 C 265.621094 105.25 266.976562 106.539062 268.296875 107.863281 C 269.621094 109.1875 270.914062 110.542969 272.167969 111.929688 C 273.425781 113.316406 274.648438 114.730469 275.835938 116.179688 C 277.023438 117.625 278.175781 119.101562 279.289062 120.605469 C 280.40625 122.109375 281.480469 123.636719 282.523438 125.195312 C 283.5625 126.75 284.5625 128.332031 285.527344 129.9375 C 286.488281 131.542969 287.410156 133.171875 288.292969 134.820312 C 289.175781 136.472656 290.015625 138.144531 290.816406 139.835938 C 291.617188 141.527344 292.375 143.238281 293.089844 144.96875 C 293.808594 146.699219 294.480469 148.445312 295.113281 150.207031 C 295.742188 151.96875 296.328125 153.746094 296.871094 155.535156 C 297.417969 157.328125 297.914062 159.132812 298.371094 160.945312 C 298.824219 162.761719 299.234375 164.589844 299.601562 166.425781 C 299.964844 168.261719 300.285156 170.105469 300.558594 171.957031 C 300.835938 173.808594 301.0625 175.664062 301.246094 177.527344 C 301.429688 179.390625 301.566406 181.257812 301.660156 183.125 C 301.753906 184.996094 301.796875 186.867188 301.796875 188.738281 Z M 301.796875 188.738281 " fill-opacity="1" fill-rule="nonzero"/></g><g clip-path="url(#567fbac68f)"><path fill="#486572" d="M 187.351562 107.664062 C 142.617188 107.664062 106.351562 143.929688 106.351562 188.664062 C 106.351562 233.398438 142.617188 269.664062 187.351562 269.664062 C 232.085938 269.664062 268.351562 233.398438 268.351562 188.664062 C 268.351562 143.929688 232.085938 107.664062 187.351562 107.664062 " fill-opacity="1" fill-rule="nonzero"/></g><path fill="#fff7ea" d="M 237.671875 219.554688 C 236.726562 210.910156 233.859375 202.535156 229.207031 195.195312 C 225.039062 188.722656 219.28125 182.726562 218.257812 174.773438 C 217.714844 170.523438 217.816406 166.300781 216.210938 162.246094 C 214.855469 158.8125 212.785156 155.765625 210.386719 152.980469 C 207.9375 150.128906 205.15625 147.582031 202.351562 145.09375 C 199.484375 142.546875 196.519531 139.835938 192.785156 138.683594 C 189.59375 137.699219 185.617188 138.011719 183.105469 140.417969 C 181.769531 141.695312 182.421875 143.941406 183.199219 145.34375 C 184.175781 147.105469 185.394531 148.777344 186.070312 150.6875 C 186.667969 152.378906 186.589844 154.007812 185.449219 155.441406 C 184.527344 156.585938 183.300781 157.503906 182.140625 158.386719 C 179.75 160.207031 176.902344 162.054688 175.851562 165.027344 C 174.753906 168.136719 175.945312 171.507812 177.980469 173.921875 C 180.457031 176.851562 184.203125 178.074219 187.949219 178.0625 C 190 178.058594 192.058594 177.703125 194.035156 177.195312 C 195.652344 176.78125 197.238281 176.082031 198.917969 175.96875 C 199.707031 175.914062 201.285156 175.8125 201.648438 176.742188 C 202.09375 177.867188 201 179.816406 200.308594 180.640625 C 195.796875 186.023438 190.148438 190.273438 185.40625 195.433594 C 180.800781 200.453125 177.363281 206.257812 174.972656 212.625 C 172.84375 218.296875 171.109375 224.527344 170.96875 230.667969 C 170.152344 230.003906 169.4375 229.1875 168.863281 228.28125 C 167.691406 226.414062 166.976562 224.371094 166.699219 222.109375 C 165.921875 215.769531 167.667969 209.3125 167.96875 202.984375 C 168.25 197.03125 168.082031 190.769531 166.683594 184.949219 C 165.492188 180.015625 162.894531 175.003906 158.140625 172.714844 C 151.976562 169.75 145.128906 171.882812 139.148438 174.234375 C 137.796875 174.773438 136.851562 176.054688 137.265625 177.566406 C 137.617188 178.863281 139.214844 179.984375 140.578125 179.449219 C 145.019531 177.703125 150.707031 175.332031 155.421875 177.386719 C 159.46875 179.152344 161.023438 183.722656 161.824219 187.992188 C 162.871094 193.550781 162.878906 199.980469 162.394531 205.84375 C 161.878906 212.050781 160.449219 218.25 161.660156 224.46875 C 162.746094 230.105469 166.378906 235.417969 171.960938 237.242188 C 172.101562 237.355469 172.257812 237.445312 172.417969 237.476562 C 174.433594 237.835938 176.449219 238.195312 178.453125 238.617188 C 182.273438 239.421875 186.167969 239.625 190.058594 239.445312 C 198.015625 239.066406 205.859375 237.289062 213.839844 237.296875 C 217.59375 237.296875 221.132812 237.878906 224.757812 238.84375 C 227.457031 239.566406 230.613281 240.363281 233.335938 239.335938 C 236.84375 238.011719 237.355469 234.460938 237.699219 231.144531 C 238.105469 227.289062 238.089844 223.394531 237.671875 219.554688 Z M 179.820312 236.144531 C 177.855469 235.753906 175.886719 235.375 173.914062 235.015625 C 173.457031 232.519531 173.601562 229.914062 173.914062 227.410156 C 174.324219 224.101562 175.121094 220.832031 176.09375 217.648438 C 178.003906 211.402344 180.734375 205.464844 184.777344 200.304688 C 188.859375 195.097656 194.089844 191 198.707031 186.3125 C 201.101562 183.878906 203.777344 181.46875 204.300781 177.925781 C 204.761719 174.804688 202.277344 173.230469 199.449219 173.246094 C 198.003906 173.25 196.621094 173.597656 195.25 174.03125 C 193.265625 174.65625 191.214844 175.171875 189.132812 175.316406 C 185.550781 175.5625 181.847656 174.695312 179.613281 171.671875 C 177.839844 169.277344 177.53125 166.210938 179.640625 163.945312 C 181.71875 161.726562 184.457031 160.273438 186.609375 158.140625 C 189.167969 155.609375 189.730469 152.453125 188.332031 149.136719 C 187.535156 147.257812 186.363281 145.609375 185.425781 143.8125 C 185.226562 143.441406 185.078125 143.074219 185.054688 142.644531 C 185.046875 142.503906 185.078125 142.367188 185.097656 142.230469 C 185.109375 142.222656 185.113281 142.230469 185.132812 142.222656 C 185.4375 142.140625 185.875 141.703125 186.171875 141.550781 C 186.542969 141.367188 186.933594 141.226562 187.332031 141.121094 C 190.878906 140.160156 194.328125 141.972656 197.0625 144.101562 C 200.003906 146.394531 202.785156 149.007812 205.4375 151.628906 C 207.941406 154.121094 210.296875 156.804688 212.085938 159.871094 C 214.109375 163.335938 214.945312 166.964844 215.238281 170.9375 C 215.542969 175.007812 216.0625 178.789062 217.796875 182.523438 C 219.375 185.914062 221.589844 188.957031 223.75 191.996094 C 224.820312 193.503906 225.882812 195.007812 226.886719 196.5625 C 227.726562 197.882812 228.492188 199.246094 229.207031 200.632812 C 230.046875 203.027344 230.265625 205.765625 230.003906 207.6875 C 229.359375 212.410156 228.945312 217.53125 225.070312 220.84375 C 221.1875 224.167969 215.980469 225.253906 211.300781 226.976562 C 204.867188 229.347656 198.742188 232.570312 193.140625 236.535156 C 192.828125 236.558594 192.519531 236.59375 192.207031 236.617188 C 188.085938 236.917969 183.894531 236.953125 179.820312 236.144531 Z M 179.820312 236.144531 " fill-opacity="1" fill-rule="nonzero"/><g clip-path="url(#91091fd193)"><path fill="#fff7ea" d="M 160.664062 146.667969 C 160.820312 147.160156 160.980469 147.613281 161.140625 148.039062 C 161.140625 148.039062 161.140625 148.042969 161.144531 148.042969 C 161.417969 148.757812 161.691406 149.382812 161.992188 149.949219 C 162.332031 150.605469 162.695312 151.175781 163.09375 151.683594 C 163.453125 152.140625 163.84375 152.550781 164.261719 152.902344 C 164.882812 153.429688 165.589844 153.859375 166.363281 154.179688 C 166.535156 154.25 166.710938 154.316406 166.890625 154.375 C 166.386719 154.609375 165.914062 154.855469 165.460938 155.125 C 165.460938 155.125 165.460938 155.125 165.457031 155.125 C 164.394531 155.753906 163.445312 156.492188 162.636719 157.320312 C 162.335938 157.625 162.054688 157.941406 161.792969 158.269531 C 161.15625 159.0625 160.59375 159.964844 160.117188 160.941406 C 159.925781 161.339844 159.746094 161.75 159.582031 162.175781 C 159.46875 161.71875 159.34375 161.292969 159.207031 160.886719 C 159.007812 160.296875 158.773438 159.738281 158.511719 159.234375 C 158.136719 158.507812 157.683594 157.847656 157.164062 157.273438 C 156.71875 156.78125 156.214844 156.332031 155.65625 155.9375 C 155.140625 155.566406 154.582031 155.234375 153.945312 154.914062 C 153.746094 154.8125 153.539062 154.710938 153.324219 154.613281 C 153.703125 154.484375 154.054688 154.351562 154.386719 154.214844 C 155 153.960938 155.550781 153.683594 156.066406 153.367188 C 156.75 152.945312 157.363281 152.453125 157.886719 151.894531 C 158.320312 151.445312 158.71875 150.921875 159.070312 150.347656 C 159.390625 149.832031 159.671875 149.277344 159.941406 148.648438 C 160.195312 148.0625 160.433594 147.414062 160.664062 146.667969 M 160.679688 143.09375 C 160.644531 143.09375 160.613281 143.09375 160.582031 143.09375 C 160.574219 143.097656 160.570312 143.105469 160.558594 143.105469 C 160.480469 143.132812 160.4375 143.191406 160.421875 143.265625 C 160.402344 143.347656 160.382812 143.429688 160.367188 143.511719 C 160.15625 144.417969 159.925781 145.320312 159.65625 146.210938 C 159.445312 146.894531 159.214844 147.566406 158.933594 148.222656 C 158.707031 148.757812 158.445312 149.277344 158.140625 149.773438 C 157.835938 150.265625 157.492188 150.722656 157.097656 151.140625 C 156.621094 151.644531 156.082031 152.070312 155.492188 152.433594 C 155.007812 152.730469 154.496094 152.984375 153.96875 153.203125 C 153.410156 153.433594 152.839844 153.628906 152.261719 153.800781 C 151.675781 153.976562 151.082031 154.128906 150.488281 154.265625 C 150.476562 154.269531 150.46875 154.273438 150.460938 154.273438 C 150.375 154.289062 150.316406 154.332031 150.285156 154.414062 C 150.28125 154.425781 150.269531 154.4375 150.261719 154.445312 C 150.261719 154.472656 150.261719 154.503906 150.261719 154.53125 C 150.273438 154.53125 150.28125 154.539062 150.285156 154.550781 C 150.3125 154.625 150.367188 154.664062 150.4375 154.6875 C 150.941406 154.855469 151.441406 155.035156 151.9375 155.226562 C 152.453125 155.433594 152.960938 155.65625 153.457031 155.902344 C 154 156.175781 154.523438 156.480469 155.019531 156.839844 C 155.507812 157.1875 155.953125 157.578125 156.355469 158.019531 C 156.828125 158.542969 157.21875 159.121094 157.539062 159.75 C 157.789062 160.230469 157.996094 160.730469 158.167969 161.246094 C 158.371094 161.847656 158.535156 162.460938 158.671875 163.078125 C 158.773438 163.539062 158.867188 164 158.945312 164.46875 C 158.996094 164.769531 159.046875 165.070312 159.089844 165.371094 C 159.128906 165.628906 159.164062 165.886719 159.203125 166.144531 C 159.214844 166.230469 159.257812 166.292969 159.339844 166.320312 C 159.355469 166.324219 159.367188 166.335938 159.382812 166.34375 C 159.398438 166.34375 159.417969 166.34375 159.4375 166.34375 C 159.453125 166.335938 159.46875 166.324219 159.484375 166.320312 C 159.558594 166.292969 159.601562 166.234375 159.617188 166.160156 C 159.625 166.113281 159.632812 166.0625 159.644531 166.015625 C 159.796875 165.222656 159.992188 164.4375 160.230469 163.667969 C 160.472656 162.902344 160.757812 162.152344 161.109375 161.429688 C 161.53125 160.550781 162.039062 159.726562 162.648438 158.964844 C 162.890625 158.664062 163.152344 158.375 163.421875 158.09375 C 164.195312 157.304688 165.066406 156.640625 166.019531 156.082031 C 166.699219 155.679688 167.414062 155.335938 168.144531 155.035156 C 168.851562 154.75 169.574219 154.503906 170.308594 154.292969 C 170.332031 154.285156 170.351562 154.28125 170.375 154.273438 C 170.425781 154.257812 170.472656 154.230469 170.496094 154.175781 C 170.496094 154.171875 170.5 154.167969 170.503906 154.167969 C 170.503906 154.105469 170.503906 154.046875 170.503906 153.988281 C 170.5 153.976562 170.492188 153.96875 170.488281 153.960938 C 170.457031 153.914062 170.417969 153.882812 170.363281 153.875 C 170.332031 153.871094 170.300781 153.867188 170.269531 153.863281 C 170.027344 153.855469 169.785156 153.832031 169.539062 153.808594 C 169.25 153.78125 168.960938 153.742188 168.671875 153.691406 C 168.023438 153.582031 167.390625 153.414062 166.78125 153.160156 C 166.121094 152.890625 165.519531 152.527344 164.972656 152.066406 C 164.597656 151.746094 164.261719 151.390625 163.957031 151.003906 C 163.574219 150.515625 163.25 149.988281 162.964844 149.441406 C 162.660156 148.859375 162.402344 148.257812 162.167969 147.648438 C 161.914062 146.980469 161.691406 146.300781 161.484375 145.617188 C 161.257812 144.863281 161.054688 144.105469 160.859375 143.34375 C 160.851562 143.3125 160.84375 143.28125 160.835938 143.253906 C 160.816406 143.179688 160.773438 143.125 160.695312 143.105469 C 160.691406 143.101562 160.683594 143.097656 160.679688 143.09375 Z M 160.679688 143.09375 " fill-opacity="1" fill-rule="nonzero"/></g><path fill="#fff7ea" d="M 92.023438 218.558594 C 95.894531 218.023438 96.207031 224.875 92.625 224.710938 C 89.746094 224.578125 88.660156 219.027344 92.023438 218.558594 " fill-opacity="1" fill-rule="evenodd"/><path fill="#fff7ea" d="M 98.246094 218.558594 C 102.507812 217.640625 102.007812 225.128906 98.042969 224.710938 C 94.90625 224.378906 95.515625 219.148438 98.246094 218.558594 " fill-opacity="1" fill-rule="evenodd"/><g clip-path="url(#2e0e1a1480)"><path fill="#fff7ea" d="M 90.617188 226.792969 C 89.101562 230.066406 84.484375 227.753906 85 224.511719 C 85.542969 221.097656 91.722656 222.839844 90.617188 226.792969 " fill-opacity="1" fill-rule="evenodd"/></g><g clip-path="url(#630d8173ec)"><path fill="#fff7ea" d="M 103.160156 222.726562 C 104.160156 222.535156 105.40625 222.886719 105.871094 223.71875 C 107.15625 226.015625 104.789062 228.820312 102.457031 228.578125 C 101.179688 228.445312 100.441406 227.371094 100.351562 226.398438 C 100.160156 224.3125 101.664062 223.011719 103.160156 222.726562 " fill-opacity="1" fill-rule="evenodd"/></g><g clip-path="url(#5a67d02711)"><path fill="#fff7ea" d="M 94.53125 225.800781 C 98.046875 225.203125 101.273438 227.707031 100.550781 231.953125 C 100.402344 232.832031 99.636719 234.074219 98.546875 234.132812 C 97.664062 234.183594 96.632812 233.335938 95.535156 233.339844 C 94.171875 233.347656 93.097656 234.542969 91.820312 233.9375 C 90.75 233.425781 90.316406 231.367188 90.519531 229.867188 C 90.804688 227.707031 92.414062 226.164062 94.53125 225.800781 " fill-opacity="1" fill-rule="evenodd"/></g><g fill="#486572" fill-opacity="1"><g transform="translate(99.308965, 201.453051)"><g><path d="M -3.921875 -11.523438 C -3.660156 -7.792969 -6.140625 -4.625 -10.476562 -4.320312 C -14.554688 -4.03125 -17.683594 -6.371094 -17.980469 -10.535156 C -18.109375 -12.386719 -17.476562 -14.144531 -16.347656 -15.445312 L -18.886719 -17.648438 C -20.609375 -15.695312 -21.5625 -13.101562 -21.363281 -10.296875 C -20.945312 -4.367188 -16.339844 -0.449219 -10.234375 -0.878906 C -3.871094 -1.324219 -0.144531 -6.179688 -0.539062 -11.761719 C -0.734375 -14.570312 -2.042969 -17.003906 -3.992188 -18.699219 L -6.226562 -16.160156 C -4.925781 -15.03125 -4.054688 -13.375 -3.921875 -11.523438 Z M -3.921875 -11.523438 "/></g></g></g><g fill="#486572" fill-opacity="1"><g transform="translate(98.208826, 179.2225)"><g><path d="M -0.503906 -11.878906 L 1.953125 -12.402344 L 2.523438 -16.011719 L -19.363281 -11.242188 L 0 0 L 0.570312 -3.609375 L -1.617188 -4.832031 Z M -4.335938 -6.378906 L -10.914062 -9.910156 L -3.570312 -11.246094 Z M -4.335938 -6.378906 "/></g></g></g><g fill="#486572" fill-opacity="1"><g transform="translate(101.238763, 161.033488)"><g><path d="M 4.683594 -12.054688 L 6.121094 -15.757812 L -4.089844 -13.8125 C -3.890625 -15.851562 -4.3125 -18.691406 -7.660156 -19.992188 C -13.175781 -22.132812 -15.632812 -15.808594 -15.632812 -15.808594 L -18.078125 -9.511719 L -14.917969 -8.285156 L -9.023438 -9.445312 L -10.1875 -6.445312 L 0.839844 -2.164062 L 2.070312 -5.324219 L -5.824219 -8.390625 L -5.121094 -10.199219 Z M -7.609375 -13.160156 L -13.457031 -12.039062 L -12.46875 -14.582031 C -12.46875 -14.582031 -11.242188 -17.742188 -8.890625 -16.828125 C -7.027344 -16.105469 -7.367188 -14.027344 -7.609375 -13.160156 Z M -7.609375 -13.160156 "/></g></g></g><g fill="#486572" fill-opacity="1"><g transform="translate(108.090013, 142.501058)"><g><path d="M 14.46875 -19.484375 L -1.851562 -31.601562 L -3.90625 -28.832031 L 4.371094 -13.476562 L -12.914062 -16.703125 L -14.96875 -13.933594 L 1.347656 -1.816406 L 3.371094 -4.539062 L -6.847656 -12.128906 L 7.070312 -9.519531 L 8.972656 -12.082031 L 2.4375 -24.195312 L 12.445312 -16.761719 Z M 14.46875 -19.484375 "/></g></g></g><g fill="#486572" fill-opacity="1"><g transform="translate(125.742503, 120.201382)"><g><path d="M -6 -16.792969 L 1.96875 -23.074219 L -0.132812 -25.738281 L -10.765625 -17.359375 L 1.800781 -1.417969 L 12.433594 -9.800781 L 10.332031 -12.464844 L 2.363281 -6.183594 L -0.777344 -10.167969 L 5.847656 -15.390625 L 3.765625 -18.03125 L -2.859375 -12.808594 Z M -6 -16.792969 "/></g></g></g><g fill="#486572" fill-opacity="1"><g transform="translate(141.148952, 108.514845)"><g><path d="M 3.554688 -5.582031 L -4.035156 -20.6875 L -7.066406 -19.164062 L 2.046875 -1.027344 L 11.789062 -5.921875 L 10.265625 -8.953125 Z M 3.554688 -5.582031 "/></g></g></g><g fill="#486572" fill-opacity="1"><g transform="translate(156.278652, 101.07578)"><g><path d="M 10.617188 -5.351562 L 12.105469 -3.328125 L 15.628906 -4.292969 L 2.269531 -22.273438 L 0 0 L 3.523438 -0.96875 L 3.738281 -3.464844 Z M 4.027344 -6.578125 L 4.535156 -14.027344 L 8.777344 -7.886719 Z M 4.027344 -6.578125 "/></g></g></g><g fill="#486572" fill-opacity="1"><g transform="translate(174.390297, 96.600623)"><g/></g></g><g fill="#486572" fill-opacity="1"><g transform="translate(186.78335, 95.312437)"><g><path d="M 13.238281 -9.011719 C 15.007812 -9.292969 16.769531 -10.507812 17 -13.167969 C 17.507812 -19.003906 10.761719 -19.441406 10.761719 -19.441406 L 4.03125 -20.023438 L 2.28125 0.199219 L 9.011719 0.78125 C 10.371094 0.898438 16.054688 1.128906 16.535156 -4.417969 C 16.535156 -4.417969 16.980469 -7.902344 13.238281 -9.011719 Z M 6.652344 -11.296875 L 7.09375 -16.382812 L 10.472656 -16.089844 C 10.472656 -16.089844 13.835938 -15.945312 13.601562 -13.230469 C 13.382812 -10.714844 10.03125 -11.003906 10.03125 -11.003906 Z M 9.304688 -2.570312 L 5.921875 -2.863281 L 6.359375 -7.917969 L 9.742188 -7.625 C 9.742188 -7.625 13.398438 -7.511719 13.164062 -4.796875 C 12.972656 -2.601562 10.71875 -2.449219 9.304688 -2.570312 Z M 9.304688 -2.570312 "/></g></g></g><g fill="#486572" fill-opacity="1"><g transform="translate(206.350174, 97.194486)"><g><path d="M 10.4375 -2.429688 C 14.382812 -1.160156 18.652344 -3.351562 19.921875 -7.296875 C 21.191406 -11.246094 19 -15.511719 15.054688 -16.785156 C 11.105469 -18.054688 6.839844 -15.863281 5.570312 -11.914062 C 4.300781 -7.96875 6.488281 -3.699219 10.4375 -2.429688 Z M 14.023438 -13.582031 C 16.230469 -12.871094 17.429688 -10.535156 16.71875 -8.328125 C 16.007812 -6.121094 13.675781 -4.921875 11.464844 -5.632812 C 9.257812 -6.34375 8.058594 -8.675781 8.769531 -10.886719 C 9.480469 -13.09375 11.816406 -14.292969 14.023438 -13.582031 Z M 15.042969 4.839844 L 16.074219 1.636719 L 3.320312 -2.464844 L 2.289062 0.738281 Z M 15.042969 4.839844 "/></g></g></g><g fill="#486572" fill-opacity="1"><g transform="translate(225.911697, 103.564053)"><g><path d="M 26.996094 -7.105469 L 12.667969 -16.019531 L 6.25 -5.707031 C 6.144531 -5.535156 5.140625 -3.871094 4.9375 -1.675781 C 4.648438 1.421875 6.074219 4.121094 8.953125 5.914062 C 11.835938 7.707031 14.886719 7.796875 17.539062 6.167969 C 19.417969 5.015625 20.46875 3.382812 20.578125 3.210938 Z M 15.679688 3.339844 C 14.148438 4.265625 12.542969 4.152344 10.746094 3.035156 C 8.976562 1.933594 8.167969 0.539062 8.296875 -1.257812 C 8.394531 -2.734375 9.105469 -3.929688 9.105469 -3.929688 L 13.730469 -11.363281 L 22.347656 -6 L 17.738281 1.40625 C 17.722656 1.433594 16.960938 2.597656 15.679688 3.339844 Z M 15.679688 3.339844 "/></g></g></g><g fill="#486572" fill-opacity="1"><g transform="translate(245.59601, 116.632724)"><g><path d="M 20.933594 -3.589844 L 23.101562 -5.808594 L 14.59375 -14.117188 L 12.429688 -11.894531 L 15.476562 -8.917969 L 3.464844 3.382812 L 5.871094 5.734375 L 17.882812 -6.566406 Z M 20.933594 -3.589844 "/></g></g></g><g fill="#486572" fill-opacity="1"><g transform="translate(256.496911, 127.721016)"><g><path d="M 17.8125 -4.859375 L 19.160156 -3.046875 L 21.652344 -4.898438 L 16.929688 -11.25 L 14.4375 -9.398438 L 15.789062 -7.582031 L 4.480469 0.824219 L 3.0625 -1.082031 L 0.570312 0.769531 L 5.433594 7.304688 L 7.921875 5.457031 L 6.503906 3.546875 Z M 17.8125 -4.859375 "/></g></g></g><g fill="#486572" fill-opacity="1"><g transform="translate(264.319514, 137.42134)"><g><path d="M 10.90625 19.601562 L 12.097656 16.675781 C 14.082031 17.050781 16.390625 16.738281 18.371094 15.84375 C 23.496094 13.523438 26.082031 7.707031 23.621094 2.265625 C 21.160156 -3.175781 15.09375 -5.046875 9.96875 -2.726562 C 4.527344 -0.265625 2.308594 5.734375 4.628906 10.859375 C 5.558594 12.917969 7.070312 14.496094 8.898438 15.515625 L 7.777344 18.3125 Z M 16.960938 12.726562 C 15.878906 13.214844 14.515625 13.511719 13.429688 13.433594 L 18.714844 1.269531 C 19.480469 1.910156 20.097656 2.710938 20.53125 3.664062 C 22.082031 7.097656 20.367188 11.183594 16.960938 12.726562 Z M 7.71875 9.460938 C 6.175781 6.054688 7.535156 2.097656 11.367188 0.363281 C 12.6875 -0.234375 14.304688 -0.457031 15.632812 -0.199219 L 10.203125 12.347656 C 9.164062 11.671875 8.265625 10.675781 7.71875 9.460938 Z M 7.71875 9.460938 "/></g></g></g><g fill="#486572" fill-opacity="1"><g transform="translate(274.535511, 161.025789)"><g><path d="M 22.957031 15.878906 L 20.410156 -0.800781 L 8.398438 1.035156 C 8.199219 1.066406 6.285156 1.386719 4.484375 2.660156 C 1.941406 4.453125 0.820312 7.296875 1.332031 10.648438 C 1.847656 14.003906 3.761719 16.378906 6.726562 17.335938 C 8.824219 18.011719 10.75 17.746094 10.949219 17.714844 Z M 7.664062 14.082031 C 5.964844 13.519531 5.007812 12.230469 4.6875 10.136719 C 4.371094 8.074219 4.902344 6.554688 6.351562 5.484375 C 7.535156 4.597656 8.90625 4.359375 8.90625 4.359375 L 17.5625 3.035156 L 19.097656 13.066406 L 10.46875 14.386719 C 10.441406 14.390625 9.058594 14.570312 7.664062 14.082031 Z M 7.664062 14.082031 "/></g></g></g><g fill="#486572" fill-opacity="1"><g transform="translate(277.58371, 184.350164)"><g><path d="M 16.351562 7.121094 L 15.476562 17.230469 L 18.855469 17.523438 L 20.023438 4.03125 L -0.199219 2.28125 L -1.367188 15.773438 L 2.015625 16.066406 L 2.890625 5.953125 L 7.945312 6.390625 L 7.21875 14.796875 L 10.566406 15.089844 L 11.296875 6.683594 Z M 16.351562 7.121094 "/></g></g></g><g fill="#486572" fill-opacity="0.4"><g transform="translate(109.347675, 248.085043)"><g><path d="M 8.453125 -3.078125 L 5.78125 -1.25 L 8.15625 2.125 L 7.34375 2.6875 L 5 -0.703125 L 1.28125 1.859375 L 0.59375 0.859375 L 8.65625 -4.703125 L 11.984375 0.125 L 11.09375 0.75 Z M 8.453125 -3.078125 "/></g></g></g><g fill="#486572" fill-opacity="0.4"><g transform="translate(114.936421, 256.086586)"><g><path d="M 3.359375 3.921875 C 2.734375 3.222656 2.359375 2.484375 2.234375 1.703125 C 2.109375 0.921875 2.21875 0.144531 2.5625 -0.625 C 2.90625 -1.394531 3.441406 -2.097656 4.171875 -2.734375 C 4.890625 -3.378906 5.65625 -3.820312 6.46875 -4.0625 C 7.28125 -4.3125 8.070312 -4.332031 8.84375 -4.125 C 9.613281 -3.925781 10.304688 -3.476562 10.921875 -2.78125 C 11.523438 -2.09375 11.878906 -1.351562 11.984375 -0.5625 C 12.097656 0.21875 11.984375 0.988281 11.640625 1.75 C 11.296875 2.507812 10.753906 3.21875 10.015625 3.875 C 9.273438 4.53125 8.507812 4.976562 7.71875 5.21875 C 6.925781 5.46875 6.148438 5.484375 5.390625 5.265625 C 4.640625 5.054688 3.960938 4.609375 3.359375 3.921875 Z M 4.171875 3.171875 C 4.597656 3.660156 5.09375 3.96875 5.65625 4.09375 C 6.226562 4.226562 6.816406 4.191406 7.421875 3.984375 C 8.035156 3.773438 8.625 3.421875 9.1875 2.921875 C 9.769531 2.410156 10.203125 1.863281 10.484375 1.28125 C 10.765625 0.695312 10.875 0.117188 10.8125 -0.453125 C 10.75 -1.035156 10.503906 -1.570312 10.078125 -2.0625 C 9.648438 -2.539062 9.148438 -2.84375 8.578125 -2.96875 C 8.003906 -3.09375 7.410156 -3.054688 6.796875 -2.859375 C 6.179688 -2.660156 5.585938 -2.304688 5.015625 -1.796875 C 4.453125 -1.296875 4.03125 -0.75 3.75 -0.15625 C 3.476562 0.425781 3.375 1.003906 3.4375 1.578125 C 3.5 2.160156 3.742188 2.691406 4.171875 3.171875 Z M 4.171875 3.171875 "/></g></g></g><g fill="#486572" fill-opacity="0.4"><g transform="translate(123.639866, 265.641801)"><g><path d="M 3.859375 3.4375 C 3.140625 2.820312 2.664062 2.132812 2.4375 1.375 C 2.207031 0.613281 2.210938 -0.164062 2.453125 -0.96875 C 2.691406 -1.769531 3.125 -2.539062 3.75 -3.28125 C 4.382812 -4.019531 5.082031 -4.566406 5.84375 -4.921875 C 6.613281 -5.285156 7.394531 -5.414062 8.1875 -5.3125 C 8.976562 -5.207031 9.726562 -4.851562 10.4375 -4.25 C 11.132812 -3.65625 11.585938 -2.976562 11.796875 -2.21875 C 12.015625 -1.457031 12.003906 -0.675781 11.765625 0.125 C 11.535156 0.925781 11.097656 1.707031 10.453125 2.46875 C 9.816406 3.207031 9.117188 3.75 8.359375 4.09375 C 7.609375 4.445312 6.84375 4.570312 6.0625 4.46875 C 5.289062 4.375 4.554688 4.03125 3.859375 3.4375 Z M 4.5625 2.578125 C 5.050781 2.992188 5.582031 3.226562 6.15625 3.28125 C 6.738281 3.332031 7.320312 3.210938 7.90625 2.921875 C 8.488281 2.640625 9.023438 2.207031 9.515625 1.625 C 10.015625 1.039062 10.359375 0.441406 10.546875 -0.171875 C 10.742188 -0.796875 10.773438 -1.390625 10.640625 -1.953125 C 10.503906 -2.515625 10.191406 -3.003906 9.703125 -3.421875 C 9.210938 -3.835938 8.675781 -4.070312 8.09375 -4.125 C 7.507812 -4.175781 6.925781 -4.054688 6.34375 -3.765625 C 5.769531 -3.472656 5.234375 -3.039062 4.734375 -2.46875 C 4.242188 -1.882812 3.898438 -1.285156 3.703125 -0.671875 C 3.515625 -0.0664062 3.488281 0.519531 3.625 1.09375 C 3.757812 1.664062 4.070312 2.160156 4.5625 2.578125 Z M 4.5625 2.578125 "/></g></g></g><g fill="#486572" fill-opacity="0.4"><g transform="translate(133.570521, 273.875041)"><g><path d="M 6.1875 -7.671875 L 9.21875 -5.71875 C 9.945312 -5.238281 10.476562 -4.65625 10.8125 -3.96875 C 11.15625 -3.28125 11.273438 -2.53125 11.171875 -1.71875 C 11.078125 -0.90625 10.757812 -0.0820312 10.21875 0.75 C 9.6875 1.582031 9.066406 2.210938 8.359375 2.640625 C 7.648438 3.078125 6.910156 3.28125 6.140625 3.25 C 5.367188 3.226562 4.617188 2.976562 3.890625 2.5 L 0.875 0.5625 Z M 4.34375 1.484375 C 5.175781 2.015625 6.019531 2.164062 6.875 1.9375 C 7.726562 1.71875 8.488281 1.09375 9.15625 0.0625 C 9.832031 -0.976562 10.09375 -1.925781 9.9375 -2.78125 C 9.789062 -3.644531 9.296875 -4.347656 8.453125 -4.890625 L 6.578125 -6.109375 L 2.46875 0.265625 Z M 4.34375 1.484375 "/></g></g></g><g fill="#486572" fill-opacity="0.4"><g transform="translate(143.777345, 280.150989)"><g/></g></g><g fill="#486572" fill-opacity="0.4"><g transform="translate(148.712515, 282.738269)"><g><path d="M 8.53125 3.5 L 7.265625 2.96875 L 6.546875 0.875 L 6.46875 0.84375 L 6.34375 0.921875 C 5.96875 1.203125 5.503906 1.414062 4.953125 1.5625 C 4.398438 1.71875 3.800781 1.660156 3.15625 1.390625 C 2.6875 1.203125 2.300781 0.9375 2 0.59375 C 1.707031 0.257812 1.523438 -0.125 1.453125 -0.5625 C 1.378906 -1.007812 1.441406 -1.472656 1.640625 -1.953125 C 1.890625 -2.554688 2.25 -2.988281 2.71875 -3.25 C 3.195312 -3.507812 3.765625 -3.628906 4.421875 -3.609375 L 4.96875 -3.578125 L 4.984375 -3.640625 L 4.953125 -3.71875 C 4.804688 -4.09375 4.703125 -4.488281 4.640625 -4.90625 C 4.578125 -5.320312 4.640625 -5.765625 4.828125 -6.234375 C 5.023438 -6.703125 5.304688 -7.054688 5.671875 -7.296875 C 6.035156 -7.535156 6.4375 -7.660156 6.875 -7.671875 C 7.320312 -7.679688 7.757812 -7.597656 8.1875 -7.421875 C 8.644531 -7.242188 9.03125 -6.976562 9.34375 -6.625 C 9.65625 -6.28125 9.851562 -5.875 9.9375 -5.40625 C 10.03125 -4.945312 9.96875 -4.457031 9.75 -3.9375 L 9.640625 -3.671875 L 8.484375 -4.15625 L 8.578125 -4.359375 C 8.773438 -4.835938 8.789062 -5.265625 8.625 -5.640625 C 8.46875 -6.015625 8.191406 -6.28125 7.796875 -6.4375 C 7.421875 -6.59375 7.050781 -6.613281 6.6875 -6.5 C 6.332031 -6.394531 6.070312 -6.132812 5.90625 -5.71875 C 5.800781 -5.476562 5.753906 -5.238281 5.765625 -5 C 5.773438 -4.769531 5.804688 -4.546875 5.859375 -4.328125 C 5.921875 -4.117188 6.03125 -3.800781 6.1875 -3.375 L 7.046875 -0.84375 L 8.53125 -2.015625 L 9.671875 -1.546875 L 7.390625 0.171875 Z M 6.203125 -0.125 L 5.296875 -2.703125 L 4.640625 -2.734375 C 4.191406 -2.765625 3.804688 -2.679688 3.484375 -2.484375 C 3.171875 -2.285156 2.9375 -2.003906 2.78125 -1.640625 C 2.59375 -1.179688 2.582031 -0.757812 2.75 -0.375 C 2.925781 0 3.242188 0.28125 3.703125 0.46875 C 4.171875 0.664062 4.59375 0.695312 4.96875 0.5625 C 5.351562 0.425781 5.710938 0.234375 6.046875 -0.015625 Z M 6.203125 -0.125 "/></g></g></g><g fill="#486572" fill-opacity="0.4"><g transform="translate(159.176858, 286.774126)"><g/></g></g><g fill="#486572" fill-opacity="0.4"><g transform="translate(164.512985, 288.456969)"><g><path d="M 7.203125 -1.421875 L 3.28125 -2.234375 L 1.703125 0.359375 L 0.484375 0.109375 L 6.09375 -8.734375 L 7.21875 -8.5 L 8.859375 1.84375 L 7.640625 1.59375 Z M 7.046875 -2.4375 L 6.375 -7.125 L 6.3125 -7.125 L 3.84375 -3.109375 Z M 7.046875 -2.4375 "/></g></g></g><g fill="#486572" fill-opacity="0.4"><g transform="translate(176.407643, 290.77258)"><g><path d="M 5.171875 0.46875 C 4.253906 0.40625 3.476562 0.132812 2.84375 -0.34375 C 2.21875 -0.832031 1.753906 -1.46875 1.453125 -2.25 C 1.160156 -3.03125 1.050781 -3.90625 1.125 -4.875 C 1.195312 -5.84375 1.4375 -6.695312 1.84375 -7.4375 C 2.25 -8.1875 2.796875 -8.75 3.484375 -9.125 C 4.179688 -9.507812 4.988281 -9.671875 5.90625 -9.609375 C 7 -9.523438 7.878906 -9.144531 8.546875 -8.46875 C 9.210938 -7.800781 9.632812 -6.929688 9.8125 -5.859375 L 8.625 -5.953125 C 8.488281 -6.679688 8.171875 -7.273438 7.671875 -7.734375 C 7.179688 -8.203125 6.566406 -8.460938 5.828125 -8.515625 C 4.816406 -8.585938 4.015625 -8.285156 3.421875 -7.609375 C 2.835938 -6.941406 2.5 -6.003906 2.40625 -4.796875 C 2.320312 -3.585938 2.519531 -2.609375 3 -1.859375 C 3.488281 -1.117188 4.238281 -0.710938 5.25 -0.640625 C 5.957031 -0.585938 6.570312 -0.726562 7.09375 -1.0625 C 7.625 -1.40625 8.019531 -1.878906 8.28125 -2.484375 L 9.453125 -2.40625 C 9.128906 -1.46875 8.597656 -0.734375 7.859375 -0.203125 C 7.117188 0.328125 6.222656 0.550781 5.171875 0.46875 Z M 5.171875 0.46875 "/></g></g></g><g fill="#486572" fill-opacity="0.4"><g transform="translate(188.966261, 291.515496)"><g><path d="M 5.171875 -0.21875 C 4.265625 -0.164062 3.460938 -0.332031 2.765625 -0.71875 C 2.078125 -1.113281 1.535156 -1.679688 1.140625 -2.421875 C 0.742188 -3.171875 0.515625 -4.023438 0.453125 -4.984375 C 0.398438 -5.953125 0.523438 -6.828125 0.828125 -7.609375 C 1.128906 -8.398438 1.597656 -9.035156 2.234375 -9.515625 C 2.867188 -9.992188 3.640625 -10.257812 4.546875 -10.3125 C 5.640625 -10.382812 6.566406 -10.128906 7.328125 -9.546875 C 8.085938 -8.960938 8.625 -8.15625 8.9375 -7.125 L 7.734375 -7.046875 C 7.503906 -7.753906 7.113281 -8.304688 6.5625 -8.703125 C 6.007812 -9.097656 5.363281 -9.269531 4.625 -9.21875 C 3.625 -9.15625 2.875 -8.75 2.375 -8 C 1.875 -7.257812 1.660156 -6.285156 1.734375 -5.078125 C 1.816406 -3.878906 2.148438 -2.9375 2.734375 -2.25 C 3.316406 -1.570312 4.109375 -1.265625 5.109375 -1.328125 C 5.816406 -1.378906 6.410156 -1.609375 6.890625 -2.015625 C 7.367188 -2.421875 7.695312 -2.945312 7.875 -3.59375 L 9.0625 -3.671875 C 8.863281 -2.679688 8.425781 -1.875 7.75 -1.25 C 7.082031 -0.632812 6.222656 -0.289062 5.171875 -0.21875 Z M 5.171875 -0.21875 "/></g></g></g><g fill="#486572" fill-opacity="0.4"><g transform="translate(201.435217, 290.526173)"><g><path d="M 0.640625 -8.96875 L 1.21875 -5.8125 L 5.390625 -6.59375 L 5.578125 -5.640625 L 1.40625 -4.859375 L 2.03125 -1.5 L 6.75 -2.375 L 6.953125 -1.296875 L 1.03125 -0.1875 L -0.765625 -9.8125 L 5.15625 -10.921875 L 5.359375 -9.84375 Z M 0.640625 -8.96875 "/></g></g></g><g fill="#486572" fill-opacity="0.4"><g transform="translate(211.688225, 288.474799)"><g><path d="M 4.125 -1.15625 C 3.40625 -0.9375 2.742188 -0.894531 2.140625 -1.03125 C 1.535156 -1.175781 1.03125 -1.441406 0.625 -1.828125 C 0.21875 -2.222656 -0.0625 -2.679688 -0.21875 -3.203125 L -0.234375 -3.265625 L 1.03125 -3.65625 L 1.046875 -3.59375 C 1.140625 -3.28125 1.304688 -2.988281 1.546875 -2.71875 C 1.796875 -2.445312 2.113281 -2.257812 2.5 -2.15625 C 2.882812 -2.050781 3.328125 -2.070312 3.828125 -2.21875 C 4.410156 -2.40625 4.847656 -2.707031 5.140625 -3.125 C 5.429688 -3.539062 5.5 -4.007812 5.34375 -4.53125 C 5.207031 -4.957031 4.957031 -5.253906 4.59375 -5.421875 C 4.238281 -5.597656 3.828125 -5.664062 3.359375 -5.625 L 1.90625 -5.453125 C 0.238281 -5.316406 -0.789062 -5.894531 -1.1875 -7.1875 C -1.351562 -7.726562 -1.367188 -8.238281 -1.234375 -8.71875 C -1.097656 -9.195312 -0.832031 -9.613281 -0.4375 -9.96875 C -0.0507812 -10.332031 0.441406 -10.609375 1.046875 -10.796875 C 1.734375 -11.003906 2.363281 -11.046875 2.9375 -10.921875 C 3.507812 -10.796875 3.988281 -10.550781 4.375 -10.1875 C 4.769531 -9.820312 5.039062 -9.40625 5.1875 -8.9375 L 5.203125 -8.875 L 3.9375 -8.484375 L 3.921875 -8.53125 C 3.835938 -8.800781 3.6875 -9.054688 3.46875 -9.296875 C 3.25 -9.535156 2.957031 -9.710938 2.59375 -9.828125 C 2.226562 -9.953125 1.800781 -9.9375 1.3125 -9.78125 C 0.757812 -9.613281 0.363281 -9.316406 0.125 -8.890625 C -0.101562 -8.472656 -0.148438 -8.03125 -0.015625 -7.5625 C 0.109375 -7.175781 0.335938 -6.894531 0.671875 -6.71875 C 1.003906 -6.550781 1.398438 -6.492188 1.859375 -6.546875 L 3.1875 -6.6875 C 5.007812 -6.875 6.128906 -6.296875 6.546875 -4.953125 C 6.710938 -4.410156 6.722656 -3.882812 6.578125 -3.375 C 6.429688 -2.863281 6.144531 -2.414062 5.71875 -2.03125 C 5.300781 -1.644531 4.769531 -1.351562 4.125 -1.15625 Z M 4.125 -1.15625 "/></g></g></g><g fill="#486572" fill-opacity="0.4"><g transform="translate(222.049902, 285.124369)"><g><path d="M 3.96875 -1.640625 C 3.28125 -1.335938 2.628906 -1.21875 2.015625 -1.28125 C 1.398438 -1.34375 0.863281 -1.546875 0.40625 -1.890625 C -0.0390625 -2.234375 -0.375 -2.65625 -0.59375 -3.15625 L -0.609375 -3.21875 L 0.609375 -3.75 L 0.625 -3.6875 C 0.757812 -3.382812 0.957031 -3.113281 1.21875 -2.875 C 1.488281 -2.644531 1.820312 -2.5 2.21875 -2.4375 C 2.625 -2.375 3.0625 -2.453125 3.53125 -2.671875 C 4.09375 -2.910156 4.492188 -3.253906 4.734375 -3.703125 C 4.972656 -4.160156 4.984375 -4.640625 4.765625 -5.140625 C 4.585938 -5.546875 4.3125 -5.8125 3.9375 -5.9375 C 3.5625 -6.0625 3.144531 -6.070312 2.6875 -5.96875 L 1.265625 -5.640625 C -0.367188 -5.304688 -1.460938 -5.757812 -2.015625 -7 C -2.242188 -7.507812 -2.316406 -8.007812 -2.234375 -8.5 C -2.160156 -9 -1.953125 -9.453125 -1.609375 -9.859375 C -1.265625 -10.265625 -0.800781 -10.59375 -0.21875 -10.84375 C 0.4375 -11.132812 1.054688 -11.25 1.640625 -11.1875 C 2.234375 -11.132812 2.742188 -10.945312 3.171875 -10.625 C 3.609375 -10.3125 3.925781 -9.929688 4.125 -9.484375 L 4.140625 -9.421875 L 2.921875 -8.890625 L 2.90625 -8.9375 C 2.789062 -9.1875 2.609375 -9.421875 2.359375 -9.640625 C 2.117188 -9.859375 1.804688 -10 1.421875 -10.0625 C 1.046875 -10.132812 0.625 -10.066406 0.15625 -9.859375 C -0.375 -9.617188 -0.726562 -9.273438 -0.90625 -8.828125 C -1.09375 -8.390625 -1.085938 -7.953125 -0.890625 -7.515625 C -0.722656 -7.140625 -0.460938 -6.882812 -0.109375 -6.75 C 0.234375 -6.625 0.632812 -6.613281 1.09375 -6.71875 L 2.390625 -7.015625 C 4.179688 -7.410156 5.363281 -6.96875 5.9375 -5.6875 C 6.15625 -5.164062 6.222656 -4.644531 6.140625 -4.125 C 6.066406 -3.601562 5.835938 -3.125 5.453125 -2.6875 C 5.078125 -2.257812 4.582031 -1.910156 3.96875 -1.640625 Z M 3.96875 -1.640625 "/></g></g></g><g fill="#486572" fill-opacity="0.4"><g transform="translate(232.031535, 280.600155)"><g><path d="M 4.453125 -2.59375 C 3.648438 -2.101562 2.851562 -1.867188 2.0625 -1.890625 C 1.28125 -1.910156 0.546875 -2.160156 -0.140625 -2.640625 C -0.835938 -3.117188 -1.4375 -3.769531 -1.9375 -4.59375 C -2.445312 -5.425781 -2.75 -6.257812 -2.84375 -7.09375 C -2.9375 -7.9375 -2.8125 -8.71875 -2.46875 -9.4375 C -2.132812 -10.164062 -1.570312 -10.769531 -0.78125 -11.25 C 0.0078125 -11.71875 0.800781 -11.9375 1.59375 -11.90625 C 2.382812 -11.875 3.125 -11.617188 3.8125 -11.140625 C 4.507812 -10.660156 5.113281 -10 5.625 -9.15625 C 6.132812 -8.3125 6.4375 -7.476562 6.53125 -6.65625 C 6.625 -5.832031 6.5 -5.066406 6.15625 -4.359375 C 5.8125 -3.648438 5.242188 -3.0625 4.453125 -2.59375 Z M 3.875 -3.53125 C 4.425781 -3.863281 4.816406 -4.289062 5.046875 -4.8125 C 5.285156 -5.34375 5.359375 -5.929688 5.265625 -6.578125 C 5.171875 -7.222656 4.925781 -7.867188 4.53125 -8.515625 C 4.132812 -9.179688 3.675781 -9.703125 3.15625 -10.078125 C 2.632812 -10.453125 2.082031 -10.660156 1.5 -10.703125 C 0.914062 -10.753906 0.347656 -10.613281 -0.203125 -10.28125 C -0.753906 -9.945312 -1.144531 -9.507812 -1.375 -8.96875 C -1.601562 -8.425781 -1.671875 -7.835938 -1.578125 -7.203125 C -1.492188 -6.566406 -1.253906 -5.921875 -0.859375 -5.265625 C -0.460938 -4.617188 -0.00390625 -4.101562 0.515625 -3.71875 C 1.046875 -3.34375 1.597656 -3.132812 2.171875 -3.09375 C 2.753906 -3.050781 3.320312 -3.195312 3.875 -3.53125 Z M 3.875 -3.53125 "/></g></g></g><g fill="#486572" fill-opacity="0.4"><g transform="translate(242.919841, 273.760363)"><g><path d="M 0.6875 -5.546875 L -0.671875 -4.46875 L 1.765625 -1.40625 L 0.8125 -0.65625 L -5.28125 -8.328125 L -2.671875 -10.390625 C -2.046875 -10.890625 -1.445312 -11.1875 -0.875 -11.28125 C -0.300781 -11.375 0.210938 -11.3125 0.671875 -11.09375 C 1.128906 -10.875 1.507812 -10.570312 1.8125 -10.1875 C 2.238281 -9.65625 2.460938 -9.050781 2.484375 -8.375 C 2.503906 -7.707031 2.226562 -7.046875 1.65625 -6.390625 L 6.15625 -4.890625 L 5.109375 -4.0625 Z M -1.3125 -5.265625 L 0.234375 -6.5 C 0.742188 -6.90625 1.085938 -7.363281 1.265625 -7.875 C 1.453125 -8.394531 1.328125 -8.925781 0.890625 -9.46875 C 0.460938 -10.007812 -0.015625 -10.242188 -0.546875 -10.171875 C -1.078125 -10.097656 -1.597656 -9.859375 -2.109375 -9.453125 L -3.65625 -8.21875 Z M -1.3125 -5.265625 "/></g></g></g><g fill="#486572" fill-opacity="0.4"><g transform="translate(251.240731, 266.871268)"><g><path d="M -5.953125 -7.84375 L -5.078125 -8.6875 L 1.671875 -1.59375 L 0.796875 -0.75 Z M -5.953125 -7.84375 "/></g></g></g><g fill="#486572" fill-opacity="0.4"><g transform="translate(255.389424, 262.921693)"><g><path d="M -5.015625 -7.46875 L -2.609375 -5.34375 L 0.203125 -8.515625 L 0.9375 -7.875 L -1.875 -4.703125 L 0.6875 -2.421875 L 3.875 -6.015625 L 4.6875 -5.296875 L 0.6875 -0.78125 L -6.640625 -7.28125 L -2.640625 -11.796875 L -1.828125 -11.0625 Z M -5.015625 -7.46875 "/></g></g></g><g fill="#486572" fill-opacity="0.4"><g transform="translate(262.222963, 255.007925)"><g><path d="M 2.546875 -3.453125 C 2.117188 -2.835938 1.625 -2.394531 1.0625 -2.125 C 0.5 -1.863281 -0.0625 -1.765625 -0.625 -1.828125 C -1.1875 -1.898438 -1.691406 -2.09375 -2.140625 -2.40625 L -2.1875 -2.4375 L -1.421875 -3.515625 L -1.375 -3.484375 C -1.101562 -3.285156 -0.789062 -3.15625 -0.4375 -3.09375 C -0.09375 -3.039062 0.265625 -3.085938 0.640625 -3.234375 C 1.023438 -3.390625 1.363281 -3.679688 1.65625 -4.109375 C 2.007812 -4.617188 2.171875 -5.128906 2.140625 -5.640625 C 2.109375 -6.148438 1.867188 -6.554688 1.421875 -6.859375 C 1.054688 -7.117188 0.679688 -7.203125 0.296875 -7.109375 C -0.0859375 -7.023438 -0.445312 -6.820312 -0.78125 -6.5 L -1.828125 -5.46875 C -3.066406 -4.34375 -4.242188 -4.171875 -5.359375 -4.953125 C -5.816406 -5.273438 -6.140625 -5.664062 -6.328125 -6.125 C -6.515625 -6.582031 -6.5625 -7.070312 -6.46875 -7.59375 C -6.382812 -8.125 -6.160156 -8.648438 -5.796875 -9.171875 C -5.390625 -9.753906 -4.921875 -10.171875 -4.390625 -10.421875 C -3.859375 -10.671875 -3.320312 -10.769531 -2.78125 -10.71875 C -2.25 -10.675781 -1.785156 -10.515625 -1.390625 -10.234375 L -1.34375 -10.203125 L -2.109375 -9.125 L -2.140625 -9.15625 C -2.367188 -9.3125 -2.640625 -9.414062 -2.953125 -9.46875 C -3.273438 -9.519531 -3.617188 -9.476562 -3.984375 -9.34375 C -4.347656 -9.207031 -4.675781 -8.929688 -4.96875 -8.515625 C -5.300781 -8.035156 -5.429688 -7.554688 -5.359375 -7.078125 C -5.296875 -6.609375 -5.0625 -6.234375 -4.65625 -5.953125 C -4.320312 -5.722656 -3.96875 -5.644531 -3.59375 -5.71875 C -3.226562 -5.789062 -2.878906 -5.988281 -2.546875 -6.3125 L -1.59375 -7.234375 C -0.257812 -8.503906 0.976562 -8.738281 2.125 -7.9375 C 2.59375 -7.613281 2.925781 -7.207031 3.125 -6.71875 C 3.320312 -6.226562 3.367188 -5.695312 3.265625 -5.125 C 3.171875 -4.5625 2.929688 -4.003906 2.546875 -3.453125 Z M 2.546875 -3.453125 "/></g></g></g><g fill="#fff7ea" fill-opacity="1"><g transform="translate(108.728955, 247.46632)"><g><path d="M 8.453125 -3.078125 L 5.78125 -1.25 L 8.15625 2.125 L 7.34375 2.6875 L 5 -0.703125 L 1.28125 1.859375 L 0.59375 0.859375 L 8.65625 -4.703125 L 11.984375 0.125 L 11.09375 0.75 Z M 8.453125 -3.078125 "/></g></g></g><g fill="#fff7ea" fill-opacity="1"><g transform="translate(114.317699, 255.467866)"><g><path d="M 3.359375 3.921875 C 2.734375 3.222656 2.359375 2.484375 2.234375 1.703125 C 2.109375 0.921875 2.21875 0.144531 2.5625 -0.625 C 2.90625 -1.394531 3.441406 -2.097656 4.171875 -2.734375 C 4.890625 -3.378906 5.65625 -3.820312 6.46875 -4.0625 C 7.28125 -4.3125 8.070312 -4.332031 8.84375 -4.125 C 9.613281 -3.925781 10.304688 -3.476562 10.921875 -2.78125 C 11.523438 -2.09375 11.878906 -1.351562 11.984375 -0.5625 C 12.097656 0.21875 11.984375 0.988281 11.640625 1.75 C 11.296875 2.507812 10.753906 3.21875 10.015625 3.875 C 9.273438 4.53125 8.507812 4.976562 7.71875 5.21875 C 6.925781 5.46875 6.148438 5.484375 5.390625 5.265625 C 4.640625 5.054688 3.960938 4.609375 3.359375 3.921875 Z M 4.171875 3.171875 C 4.597656 3.660156 5.09375 3.96875 5.65625 4.09375 C 6.226562 4.226562 6.816406 4.191406 7.421875 3.984375 C 8.035156 3.773438 8.625 3.421875 9.1875 2.921875 C 9.769531 2.410156 10.203125 1.863281 10.484375 1.28125 C 10.765625 0.695312 10.875 0.117188 10.8125 -0.453125 C 10.75 -1.035156 10.503906 -1.570312 10.078125 -2.0625 C 9.648438 -2.539062 9.148438 -2.84375 8.578125 -2.96875 C 8.003906 -3.09375 7.410156 -3.054688 6.796875 -2.859375 C 6.179688 -2.660156 5.585938 -2.304688 5.015625 -1.796875 C 4.453125 -1.296875 4.03125 -0.75 3.75 -0.15625 C 3.476562 0.425781 3.375 1.003906 3.4375 1.578125 C 3.5 2.160156 3.742188 2.691406 4.171875 3.171875 Z M 4.171875 3.171875 "/></g></g></g><g fill="#fff7ea" fill-opacity="1"><g transform="translate(123.021143, 265.023081)"><g><path d="M 3.859375 3.4375 C 3.140625 2.820312 2.664062 2.132812 2.4375 1.375 C 2.207031 0.613281 2.210938 -0.164062 2.453125 -0.96875 C 2.691406 -1.769531 3.125 -2.539062 3.75 -3.28125 C 4.382812 -4.019531 5.082031 -4.566406 5.84375 -4.921875 C 6.613281 -5.285156 7.394531 -5.414062 8.1875 -5.3125 C 8.976562 -5.207031 9.726562 -4.851562 10.4375 -4.25 C 11.132812 -3.65625 11.585938 -2.976562 11.796875 -2.21875 C 12.015625 -1.457031 12.003906 -0.675781 11.765625 0.125 C 11.535156 0.925781 11.097656 1.707031 10.453125 2.46875 C 9.816406 3.207031 9.117188 3.75 8.359375 4.09375 C 7.609375 4.445312 6.84375 4.570312 6.0625 4.46875 C 5.289062 4.375 4.554688 4.03125 3.859375 3.4375 Z M 4.5625 2.578125 C 5.050781 2.992188 5.582031 3.226562 6.15625 3.28125 C 6.738281 3.332031 7.320312 3.210938 7.90625 2.921875 C 8.488281 2.640625 9.023438 2.207031 9.515625 1.625 C 10.015625 1.039062 10.359375 0.441406 10.546875 -0.171875 C 10.742188 -0.796875 10.773438 -1.390625 10.640625 -1.953125 C 10.503906 -2.515625 10.191406 -3.003906 9.703125 -3.421875 C 9.210938 -3.835938 8.675781 -4.070312 8.09375 -4.125 C 7.507812 -4.175781 6.925781 -4.054688 6.34375 -3.765625 C 5.769531 -3.472656 5.234375 -3.039062 4.734375 -2.46875 C 4.242188 -1.882812 3.898438 -1.285156 3.703125 -0.671875 C 3.515625 -0.0664062 3.488281 0.519531 3.625 1.09375 C 3.757812 1.664062 4.070312 2.160156 4.5625 2.578125 Z M 4.5625 2.578125 "/></g></g></g><g fill="#fff7ea" fill-opacity="1"><g transform="translate(132.951801, 273.256321)"><g><path d="M 6.1875 -7.671875 L 9.21875 -5.71875 C 9.945312 -5.238281 10.476562 -4.65625 10.8125 -3.96875 C 11.15625 -3.28125 11.273438 -2.53125 11.171875 -1.71875 C 11.078125 -0.90625 10.757812 -0.0820312 10.21875 0.75 C 9.6875 1.582031 9.066406 2.210938 8.359375 2.640625 C 7.648438 3.078125 6.910156 3.28125 6.140625 3.25 C 5.367188 3.226562 4.617188 2.976562 3.890625 2.5 L 0.875 0.5625 Z M 4.34375 1.484375 C 5.175781 2.015625 6.019531 2.164062 6.875 1.9375 C 7.726562 1.71875 8.488281 1.09375 9.15625 0.0625 C 9.832031 -0.976562 10.09375 -1.925781 9.9375 -2.78125 C 9.789062 -3.644531 9.296875 -4.347656 8.453125 -4.890625 L 6.578125 -6.109375 L 2.46875 0.265625 Z M 4.34375 1.484375 "/></g></g></g><g fill="#fff7ea" fill-opacity="1"><g transform="translate(143.158611, 279.532295)"><g/></g></g><g fill="#fff7ea" fill-opacity="1"><g transform="translate(148.093795, 282.119547)"><g><path d="M 8.53125 3.5 L 7.265625 2.96875 L 6.546875 0.875 L 6.46875 0.84375 L 6.34375 0.921875 C 5.96875 1.203125 5.503906 1.414062 4.953125 1.5625 C 4.398438 1.71875 3.800781 1.660156 3.15625 1.390625 C 2.6875 1.203125 2.300781 0.9375 2 0.59375 C 1.707031 0.257812 1.523438 -0.125 1.453125 -0.5625 C 1.378906 -1.007812 1.441406 -1.472656 1.640625 -1.953125 C 1.890625 -2.554688 2.25 -2.988281 2.71875 -3.25 C 3.195312 -3.507812 3.765625 -3.628906 4.421875 -3.609375 L 4.96875 -3.578125 L 4.984375 -3.640625 L 4.953125 -3.71875 C 4.804688 -4.09375 4.703125 -4.488281 4.640625 -4.90625 C 4.578125 -5.320312 4.640625 -5.765625 4.828125 -6.234375 C 5.023438 -6.703125 5.304688 -7.054688 5.671875 -7.296875 C 6.035156 -7.535156 6.4375 -7.660156 6.875 -7.671875 C 7.320312 -7.679688 7.757812 -7.597656 8.1875 -7.421875 C 8.644531 -7.242188 9.03125 -6.976562 9.34375 -6.625 C 9.65625 -6.28125 9.851562 -5.875 9.9375 -5.40625 C 10.03125 -4.945312 9.96875 -4.457031 9.75 -3.9375 L 9.640625 -3.671875 L 8.484375 -4.15625 L 8.578125 -4.359375 C 8.773438 -4.835938 8.789062 -5.265625 8.625 -5.640625 C 8.46875 -6.015625 8.191406 -6.28125 7.796875 -6.4375 C 7.421875 -6.59375 7.050781 -6.613281 6.6875 -6.5 C 6.332031 -6.394531 6.070312 -6.132812 5.90625 -5.71875 C 5.800781 -5.476562 5.753906 -5.238281 5.765625 -5 C 5.773438 -4.769531 5.804688 -4.546875 5.859375 -4.328125 C 5.921875 -4.117188 6.03125 -3.800781 6.1875 -3.375 L 7.046875 -0.84375 L 8.53125 -2.015625 L 9.671875 -1.546875 L 7.390625 0.171875 Z M 6.203125 -0.125 L 5.296875 -2.703125 L 4.640625 -2.734375 C 4.191406 -2.765625 3.804688 -2.679688 3.484375 -2.484375 C 3.171875 -2.285156 2.9375 -2.003906 2.78125 -1.640625 C 2.59375 -1.179688 2.582031 -0.757812 2.75 -0.375 C 2.925781 0 3.242188 0.28125 3.703125 0.46875 C 4.171875 0.664062 4.59375 0.695312 4.96875 0.5625 C 5.351562 0.425781 5.710938 0.234375 6.046875 -0.015625 Z M 6.203125 -0.125 "/></g></g></g><g fill="#fff7ea" fill-opacity="1"><g transform="translate(158.558138, 286.155406)"><g/></g></g><g fill="#fff7ea" fill-opacity="1"><g transform="translate(163.894265, 287.838249)"><g><path d="M 7.203125 -1.421875 L 3.28125 -2.234375 L 1.703125 0.359375 L 0.484375 0.109375 L 6.09375 -8.734375 L 7.21875 -8.5 L 8.859375 1.84375 L 7.640625 1.59375 Z M 7.046875 -2.4375 L 6.375 -7.125 L 6.3125 -7.125 L 3.84375 -3.109375 Z M 7.046875 -2.4375 "/></g></g></g><g fill="#fff7ea" fill-opacity="1"><g transform="translate(175.788923, 290.153857)"><g><path d="M 5.171875 0.46875 C 4.253906 0.40625 3.476562 0.132812 2.84375 -0.34375 C 2.21875 -0.832031 1.753906 -1.46875 1.453125 -2.25 C 1.160156 -3.03125 1.050781 -3.90625 1.125 -4.875 C 1.195312 -5.84375 1.4375 -6.695312 1.84375 -7.4375 C 2.25 -8.1875 2.796875 -8.75 3.484375 -9.125 C 4.179688 -9.507812 4.988281 -9.671875 5.90625 -9.609375 C 7 -9.523438 7.878906 -9.144531 8.546875 -8.46875 C 9.210938 -7.800781 9.632812 -6.929688 9.8125 -5.859375 L 8.625 -5.953125 C 8.488281 -6.679688 8.171875 -7.273438 7.671875 -7.734375 C 7.179688 -8.203125 6.566406 -8.460938 5.828125 -8.515625 C 4.816406 -8.585938 4.015625 -8.285156 3.421875 -7.609375 C 2.835938 -6.941406 2.5 -6.003906 2.40625 -4.796875 C 2.320312 -3.585938 2.519531 -2.609375 3 -1.859375 C 3.488281 -1.117188 4.238281 -0.710938 5.25 -0.640625 C 5.957031 -0.585938 6.570312 -0.726562 7.09375 -1.0625 C 7.625 -1.40625 8.019531 -1.878906 8.28125 -2.484375 L 9.453125 -2.40625 C 9.128906 -1.46875 8.597656 -0.734375 7.859375 -0.203125 C 7.117188 0.328125 6.222656 0.550781 5.171875 0.46875 Z M 5.171875 0.46875 "/></g></g></g><g fill="#fff7ea" fill-opacity="1"><g transform="translate(188.347539, 290.896774)"><g><path d="M 5.171875 -0.21875 C 4.265625 -0.164062 3.460938 -0.332031 2.765625 -0.71875 C 2.078125 -1.113281 1.535156 -1.679688 1.140625 -2.421875 C 0.742188 -3.171875 0.515625 -4.023438 0.453125 -4.984375 C 0.398438 -5.953125 0.523438 -6.828125 0.828125 -7.609375 C 1.128906 -8.398438 1.597656 -9.035156 2.234375 -9.515625 C 2.867188 -9.992188 3.640625 -10.257812 4.546875 -10.3125 C 5.640625 -10.382812 6.566406 -10.128906 7.328125 -9.546875 C 8.085938 -8.960938 8.625 -8.15625 8.9375 -7.125 L 7.734375 -7.046875 C 7.503906 -7.753906 7.113281 -8.304688 6.5625 -8.703125 C 6.007812 -9.097656 5.363281 -9.269531 4.625 -9.21875 C 3.625 -9.15625 2.875 -8.75 2.375 -8 C 1.875 -7.257812 1.660156 -6.285156 1.734375 -5.078125 C 1.816406 -3.878906 2.148438 -2.9375 2.734375 -2.25 C 3.316406 -1.570312 4.109375 -1.265625 5.109375 -1.328125 C 5.816406 -1.378906 6.410156 -1.609375 6.890625 -2.015625 C 7.367188 -2.421875 7.695312 -2.945312 7.875 -3.59375 L 9.0625 -3.671875 C 8.863281 -2.679688 8.425781 -1.875 7.75 -1.25 C 7.082031 -0.632812 6.222656 -0.289062 5.171875 -0.21875 Z M 5.171875 -0.21875 "/></g></g></g><g fill="#fff7ea" fill-opacity="1"><g transform="translate(200.816497, 289.907453)"><g><path d="M 0.640625 -8.96875 L 1.21875 -5.8125 L 5.390625 -6.59375 L 5.578125 -5.640625 L 1.40625 -4.859375 L 2.03125 -1.5 L 6.75 -2.375 L 6.953125 -1.296875 L 1.03125 -0.1875 L -0.765625 -9.8125 L 5.15625 -10.921875 L 5.359375 -9.84375 Z M 0.640625 -8.96875 "/></g></g></g><g fill="#fff7ea" fill-opacity="1"><g transform="translate(211.069491, 287.856079)"><g><path d="M 4.125 -1.15625 C 3.40625 -0.9375 2.742188 -0.894531 2.140625 -1.03125 C 1.535156 -1.175781 1.03125 -1.441406 0.625 -1.828125 C 0.21875 -2.222656 -0.0625 -2.679688 -0.21875 -3.203125 L -0.234375 -3.265625 L 1.03125 -3.65625 L 1.046875 -3.59375 C 1.140625 -3.28125 1.304688 -2.988281 1.546875 -2.71875 C 1.796875 -2.445312 2.113281 -2.257812 2.5 -2.15625 C 2.882812 -2.050781 3.328125 -2.070312 3.828125 -2.21875 C 4.410156 -2.40625 4.847656 -2.707031 5.140625 -3.125 C 5.429688 -3.539062 5.5 -4.007812 5.34375 -4.53125 C 5.207031 -4.957031 4.957031 -5.253906 4.59375 -5.421875 C 4.238281 -5.597656 3.828125 -5.664062 3.359375 -5.625 L 1.90625 -5.453125 C 0.238281 -5.316406 -0.789062 -5.894531 -1.1875 -7.1875 C -1.351562 -7.726562 -1.367188 -8.238281 -1.234375 -8.71875 C -1.097656 -9.195312 -0.832031 -9.613281 -0.4375 -9.96875 C -0.0507812 -10.332031 0.441406 -10.609375 1.046875 -10.796875 C 1.734375 -11.003906 2.363281 -11.046875 2.9375 -10.921875 C 3.507812 -10.796875 3.988281 -10.550781 4.375 -10.1875 C 4.769531 -9.820312 5.039062 -9.40625 5.1875 -8.9375 L 5.203125 -8.875 L 3.9375 -8.484375 L 3.921875 -8.53125 C 3.835938 -8.800781 3.6875 -9.054688 3.46875 -9.296875 C 3.25 -9.535156 2.957031 -9.710938 2.59375 -9.828125 C 2.226562 -9.953125 1.800781 -9.9375 1.3125 -9.78125 C 0.757812 -9.613281 0.363281 -9.316406 0.125 -8.890625 C -0.101562 -8.472656 -0.148438 -8.03125 -0.015625 -7.5625 C 0.109375 -7.175781 0.335938 -6.894531 0.671875 -6.71875 C 1.003906 -6.550781 1.398438 -6.492188 1.859375 -6.546875 L 3.1875 -6.6875 C 5.007812 -6.875 6.128906 -6.296875 6.546875 -4.953125 C 6.710938 -4.410156 6.722656 -3.882812 6.578125 -3.375 C 6.429688 -2.863281 6.144531 -2.414062 5.71875 -2.03125 C 5.300781 -1.644531 4.769531 -1.351562 4.125 -1.15625 Z M 4.125 -1.15625 "/></g></g></g><g fill="#fff7ea" fill-opacity="1"><g transform="translate(221.43118, 284.505646)"><g><path d="M 3.96875 -1.640625 C 3.28125 -1.335938 2.628906 -1.21875 2.015625 -1.28125 C 1.398438 -1.34375 0.863281 -1.546875 0.40625 -1.890625 C -0.0390625 -2.234375 -0.375 -2.65625 -0.59375 -3.15625 L -0.609375 -3.21875 L 0.609375 -3.75 L 0.625 -3.6875 C 0.757812 -3.382812 0.957031 -3.113281 1.21875 -2.875 C 1.488281 -2.644531 1.820312 -2.5 2.21875 -2.4375 C 2.625 -2.375 3.0625 -2.453125 3.53125 -2.671875 C 4.09375 -2.910156 4.492188 -3.253906 4.734375 -3.703125 C 4.972656 -4.160156 4.984375 -4.640625 4.765625 -5.140625 C 4.585938 -5.546875 4.3125 -5.8125 3.9375 -5.9375 C 3.5625 -6.0625 3.144531 -6.070312 2.6875 -5.96875 L 1.265625 -5.640625 C -0.367188 -5.304688 -1.460938 -5.757812 -2.015625 -7 C -2.242188 -7.507812 -2.316406 -8.007812 -2.234375 -8.5 C -2.160156 -9 -1.953125 -9.453125 -1.609375 -9.859375 C -1.265625 -10.265625 -0.800781 -10.59375 -0.21875 -10.84375 C 0.4375 -11.132812 1.054688 -11.25 1.640625 -11.1875 C 2.234375 -11.132812 2.742188 -10.945312 3.171875 -10.625 C 3.609375 -10.3125 3.925781 -9.929688 4.125 -9.484375 L 4.140625 -9.421875 L 2.921875 -8.890625 L 2.90625 -8.9375 C 2.789062 -9.1875 2.609375 -9.421875 2.359375 -9.640625 C 2.117188 -9.859375 1.804688 -10 1.421875 -10.0625 C 1.046875 -10.132812 0.625 -10.066406 0.15625 -9.859375 C -0.375 -9.617188 -0.726562 -9.273438 -0.90625 -8.828125 C -1.09375 -8.390625 -1.085938 -7.953125 -0.890625 -7.515625 C -0.722656 -7.140625 -0.460938 -6.882812 -0.109375 -6.75 C 0.234375 -6.625 0.632812 -6.613281 1.09375 -6.71875 L 2.390625 -7.015625 C 4.179688 -7.410156 5.363281 -6.96875 5.9375 -5.6875 C 6.15625 -5.164062 6.222656 -4.644531 6.140625 -4.125 C 6.066406 -3.601562 5.835938 -3.125 5.453125 -2.6875 C 5.078125 -2.257812 4.582031 -1.910156 3.96875 -1.640625 Z M 3.96875 -1.640625 "/></g></g></g><g fill="#fff7ea" fill-opacity="1"><g transform="translate(231.412801, 279.981435)"><g><path d="M 4.453125 -2.59375 C 3.648438 -2.101562 2.851562 -1.867188 2.0625 -1.890625 C 1.28125 -1.910156 0.546875 -2.160156 -0.140625 -2.640625 C -0.835938 -3.117188 -1.4375 -3.769531 -1.9375 -4.59375 C -2.445312 -5.425781 -2.75 -6.257812 -2.84375 -7.09375 C -2.9375 -7.9375 -2.8125 -8.71875 -2.46875 -9.4375 C -2.132812 -10.164062 -1.570312 -10.769531 -0.78125 -11.25 C 0.0078125 -11.71875 0.800781 -11.9375 1.59375 -11.90625 C 2.382812 -11.875 3.125 -11.617188 3.8125 -11.140625 C 4.507812 -10.660156 5.113281 -10 5.625 -9.15625 C 6.132812 -8.3125 6.4375 -7.476562 6.53125 -6.65625 C 6.625 -5.832031 6.5 -5.066406 6.15625 -4.359375 C 5.8125 -3.648438 5.242188 -3.0625 4.453125 -2.59375 Z M 3.875 -3.53125 C 4.425781 -3.863281 4.816406 -4.289062 5.046875 -4.8125 C 5.285156 -5.34375 5.359375 -5.929688 5.265625 -6.578125 C 5.171875 -7.222656 4.925781 -7.867188 4.53125 -8.515625 C 4.132812 -9.179688 3.675781 -9.703125 3.15625 -10.078125 C 2.632812 -10.453125 2.082031 -10.660156 1.5 -10.703125 C 0.914062 -10.753906 0.347656 -10.613281 -0.203125 -10.28125 C -0.753906 -9.945312 -1.144531 -9.507812 -1.375 -8.96875 C -1.601562 -8.425781 -1.671875 -7.835938 -1.578125 -7.203125 C -1.492188 -6.566406 -1.253906 -5.921875 -0.859375 -5.265625 C -0.460938 -4.617188 -0.00390625 -4.101562 0.515625 -3.71875 C 1.046875 -3.34375 1.597656 -3.132812 2.171875 -3.09375 C 2.753906 -3.050781 3.320312 -3.195312 3.875 -3.53125 Z M 3.875 -3.53125 "/></g></g></g><g fill="#fff7ea" fill-opacity="1"><g transform="translate(242.301136, 273.14167)"><g><path d="M 0.6875 -5.546875 L -0.671875 -4.46875 L 1.765625 -1.40625 L 0.8125 -0.65625 L -5.28125 -8.328125 L -2.671875 -10.390625 C -2.046875 -10.890625 -1.445312 -11.1875 -0.875 -11.28125 C -0.300781 -11.375 0.210938 -11.3125 0.671875 -11.09375 C 1.128906 -10.875 1.507812 -10.570312 1.8125 -10.1875 C 2.238281 -9.65625 2.460938 -9.050781 2.484375 -8.375 C 2.503906 -7.707031 2.226562 -7.046875 1.65625 -6.390625 L 6.15625 -4.890625 L 5.109375 -4.0625 Z M -1.3125 -5.265625 L 0.234375 -6.5 C 0.742188 -6.90625 1.085938 -7.363281 1.265625 -7.875 C 1.453125 -8.394531 1.328125 -8.925781 0.890625 -9.46875 C 0.460938 -10.007812 -0.015625 -10.242188 -0.546875 -10.171875 C -1.078125 -10.097656 -1.597656 -9.859375 -2.109375 -9.453125 L -3.65625 -8.21875 Z M -1.3125 -5.265625 "/></g></g></g><g fill="#fff7ea" fill-opacity="1"><g transform="translate(250.621997, 266.252577)"><g><path d="M -5.953125 -7.84375 L -5.078125 -8.6875 L 1.671875 -1.59375 L 0.796875 -0.75 Z M -5.953125 -7.84375 "/></g></g></g><g fill="#fff7ea" fill-opacity="1"><g transform="translate(254.770702, 262.303002)"><g><path d="M -5.015625 -7.46875 L -2.609375 -5.34375 L 0.203125 -8.515625 L 0.9375 -7.875 L -1.875 -4.703125 L 0.6875 -2.421875 L 3.875 -6.015625 L 4.6875 -5.296875 L 0.6875 -0.78125 L -6.640625 -7.28125 L -2.640625 -11.796875 L -1.828125 -11.0625 Z M -5.015625 -7.46875 "/></g></g></g><g fill="#fff7ea" fill-opacity="1"><g transform="translate(261.604243, 254.389205)"><g><path d="M 2.546875 -3.453125 C 2.117188 -2.835938 1.625 -2.394531 1.0625 -2.125 C 0.5 -1.863281 -0.0625 -1.765625 -0.625 -1.828125 C -1.1875 -1.898438 -1.691406 -2.09375 -2.140625 -2.40625 L -2.1875 -2.4375 L -1.421875 -3.515625 L -1.375 -3.484375 C -1.101562 -3.285156 -0.789062 -3.15625 -0.4375 -3.09375 C -0.09375 -3.039062 0.265625 -3.085938 0.640625 -3.234375 C 1.023438 -3.390625 1.363281 -3.679688 1.65625 -4.109375 C 2.007812 -4.617188 2.171875 -5.128906 2.140625 -5.640625 C 2.109375 -6.148438 1.867188 -6.554688 1.421875 -6.859375 C 1.054688 -7.117188 0.679688 -7.203125 0.296875 -7.109375 C -0.0859375 -7.023438 -0.445312 -6.820312 -0.78125 -6.5 L -1.828125 -5.46875 C -3.066406 -4.34375 -4.242188 -4.171875 -5.359375 -4.953125 C -5.816406 -5.273438 -6.140625 -5.664062 -6.328125 -6.125 C -6.515625 -6.582031 -6.5625 -7.070312 -6.46875 -7.59375 C -6.382812 -8.125 -6.160156 -8.648438 -5.796875 -9.171875 C -5.390625 -9.753906 -4.921875 -10.171875 -4.390625 -10.421875 C -3.859375 -10.671875 -3.320312 -10.769531 -2.78125 -10.71875 C -2.25 -10.675781 -1.785156 -10.515625 -1.390625 -10.234375 L -1.34375 -10.203125 L -2.109375 -9.125 L -2.140625 -9.15625 C -2.367188 -9.3125 -2.640625 -9.414062 -2.953125 -9.46875 C -3.273438 -9.519531 -3.617188 -9.476562 -3.984375 -9.34375 C -4.347656 -9.207031 -4.675781 -8.929688 -4.96875 -8.515625 C -5.300781 -8.035156 -5.429688 -7.554688 -5.359375 -7.078125 C -5.296875 -6.609375 -5.0625 -6.234375 -4.65625 -5.953125 C -4.320312 -5.722656 -3.96875 -5.644531 -3.59375 -5.71875 C -3.226562 -5.789062 -2.878906 -5.988281 -2.546875 -6.3125 L -1.59375 -7.234375 C -0.257812 -8.503906 0.976562 -8.738281 2.125 -7.9375 C 2.59375 -7.613281 2.925781 -7.207031 3.125 -6.71875 C 3.320312 -6.226562 3.367188 -5.695312 3.265625 -5.125 C 3.171875 -4.5625 2.929688 -4.003906 2.546875 -3.453125 Z M 2.546875 -3.453125 "/></g></g></g><path fill="#fff7ea" d="M 276.121094 218.558594 C 279.992188 218.023438 280.304688 224.875 276.722656 224.710938 C 273.84375 224.578125 272.757812 219.027344 276.121094 218.558594 " fill-opacity="1" fill-rule="evenodd"/><path fill="#fff7ea" d="M 282.34375 218.558594 C 286.605469 217.640625 286.109375 225.128906 282.140625 224.710938 C 279.003906 224.378906 279.613281 219.148438 282.34375 218.558594 " fill-opacity="1" fill-rule="evenodd"/><path fill="#fff7ea" d="M 274.714844 226.792969 C 273.199219 230.066406 268.582031 227.753906 269.097656 224.511719 C 269.640625 221.097656 275.820312 222.839844 274.714844 226.792969 " fill-opacity="1" fill-rule="evenodd"/><g clip-path="url(#93b6c2d17b)"><path fill="#fff7ea" d="M 287.257812 222.726562 C 288.257812 222.535156 289.503906 222.886719 289.96875 223.71875 C 291.253906 226.015625 288.886719 228.820312 286.558594 228.578125 C 285.277344 228.445312 284.539062 227.371094 284.449219 226.398438 C 284.257812 224.3125 285.761719 223.011719 287.257812 222.726562 " fill-opacity="1" fill-rule="evenodd"/></g><g clip-path="url(#b58bc60da7)"><path fill="#fff7ea" d="M 278.628906 225.800781 C 282.144531 225.203125 285.375 227.707031 284.652344 231.953125 C 284.5 232.832031 283.734375 234.074219 282.644531 234.132812 C 281.761719 234.183594 280.730469 233.335938 279.632812 233.339844 C 278.269531 233.347656 277.195312 234.542969 275.921875 233.9375 C 274.847656 233.425781 274.414062 231.367188 274.617188 229.867188 C 274.902344 227.707031 276.511719 226.164062 278.628906 225.800781 " fill-opacity="1" fill-rule="evenodd"/></g></svg>